# xmcd CD database file
#
# Track frame offsets:
#	150
#	37206
#	56375
#	83569
#	90487
#	118088
#	142171
#	152833
#	173051
#	198407
#	229868
#
# Disc length: 3389 seconds
#
# Revision: 0
# Processed by: cddbd v1.5.1PL0 Copyright (c) Steve Scherf et al.
# Submitted via: CDex 1.51
#
DISCID=900d3b0b
DTITLE=柴田　淳 - ひとり
DYEAR=1900
DGENRE=JPop
TTITLE0=少女
TTITLE1=虹
TTITLE2=未成年
TTITLE3=足跡
TTITLE4=あなたとの日々
TTITLE5=かなわない
TTITLE6=夕日
TTITLE7=雪の音
TTITLE8=コンビニ
TTITLE9=今夜、君の声が聞きたい
TTITLE10=ひとり歩き
EXTD=
EXTT0=
EXTT1=
EXTT2=
EXTT3=
EXTT4=
EXTT5=
EXTT6=
EXTT7=
EXTT8=
EXTT9=
EXTT10=
PLAYORDER=
